<?xml version="1.0" encoding="utf-8"?>
<!-- Generator: Adobe Illustrator 23.0.1, SVG Export Plug-In . SVG Version: 6.00 Build 0)  -->
<svg version="1.1" id="Layer_1" xmlns="http://www.w3.org/2000/svg" xmlns:xlink="http://www.w3.org/1999/xlink" x="0px" y="0px"
	 viewBox="0 0 300 300" style="enable-background:new 0 0 300 300;" xml:space="preserve">
<style type="text/css">
	.st0{fill:#0599C5;}
</style>
<g>
	<path class="st0" d="M69.04,235.13l-2.18-6.45H54.81c-0.33,1-0.68,2.08-1.05,3.25l-1,3.2h-5.84l10.8-29.89H64l10.51,29.89H69.04z
		 M60.81,211.74c-0.73,2.03-1.42,4-2.09,5.91c-0.67,1.91-1.4,3.94-2.18,6.09h8.59L60.81,211.74z"/>
	<path class="st0" d="M92.03,205.34h-11v29.86h5.08v-10.17h5.92c6.02,0,8.95-2.54,8.95-7.75v-4.23
		C100.98,207.86,98.05,205.34,92.03,205.34z M86.12,210.04h5.79c3.44,0,4,0.9,4,3.06v4.19c0,2.11-0.58,3.06-4,3.06h-5.79V210.04z"/>
	<path class="st0" d="M117.86,205.34h-11v29.86h5.08v-10.17h5.92c6.02,0,8.95-2.54,8.95-7.75v-4.23
		C126.81,207.86,123.88,205.34,117.86,205.34z M111.94,210.04h5.79c3.44,0,4,0.9,4,3.06v4.19c0,2.11-0.58,3.06-4,3.06h-5.79V210.04z
		"/>
	<path class="st0" d="M141.83,232.21h13.79v2.99h-16.8v-29.84h3.01V232.21z"/>
	<path class="st0" d="M182.05,226.52c0,4.97-3.09,9.05-10.8,9.05c-7.71,0-10.8-4.08-10.8-9.05v-12.63c0-4.97,3.09-9.05,10.8-9.05
		c7.7,0,10.8,4.08,10.8,9.05V226.52z M163.25,226.56c0,4.29,2.61,6.69,8.1,6.69s8.1-2.4,8.1-6.69v-12.72c0-4.29-2.61-6.69-8.1-6.69
		s-8.1,2.4-8.1,6.69V226.56z"/>
	<path class="st0" d="M186.62,205.37h2.98l9.64,26.84l9.67-26.84h3.06l-10.72,29.84h-3.96L186.62,205.37z"/>
	<path class="st0" d="M221.23,235.21h-3.01v-29.84h3.01V235.21z"/>
	<path class="st0" d="M235.64,208.96v26.25h-2.83v-29.84h4.44l12.99,25.53v-25.53h2.83v29.84h-3.59L235.64,208.96z"/>
</g>
<g>
	<g>
		<path class="st0" d="M206.92,150.48c-9.27,0-16.81,7.54-16.81,16.81c0,9.27,7.54,16.81,16.81,16.81c9.27,0,16.81-7.54,16.81-16.81
			C223.73,158.02,216.19,150.48,206.92,150.48z M216.86,167.29c0,5.48-4.46,9.94-9.94,9.94c-5.48,0-9.94-4.46-9.94-9.94
			c0-5.48,4.46-9.94,9.94-9.94C212.4,157.35,216.86,161.81,216.86,167.29z"/>
		<path class="st0" d="M93.08,150.48c-9.27,0-16.81,7.54-16.81,16.81c0,9.27,7.54,16.81,16.81,16.81c9.27,0,16.81-7.54,16.81-16.81
			C109.9,158.02,102.35,150.48,93.08,150.48z M103.03,167.29c0,5.48-4.46,9.94-9.94,9.94c-5.48,0-9.94-4.46-9.94-9.94
			c0-5.48,4.46-9.94,9.94-9.94C98.57,157.35,103.03,161.81,103.03,167.29z"/>
		<path class="st0" d="M150,58.39c-9.27,0-16.81,7.54-16.81,16.81c0,9.27,7.54,16.81,16.81,16.81c9.27,0,16.81-7.54,16.81-16.81
			C166.81,65.93,159.27,58.39,150,58.39z M159.94,75.2c0,5.48-4.46,9.94-9.94,9.94c-5.48,0-9.94-4.46-9.94-9.94
			c0-5.48,4.46-9.94,9.94-9.94C155.48,65.26,159.94,69.72,159.94,75.2z"/>
	</g>
	<path class="st0" d="M200.7,152.35l-37.12-66.85l-0.36-0.65l-0.46,0.58c-1.28,1.59-2.84,2.88-4.62,3.83l-0.45,0.24l0.25,0.44
		l32.86,59.18c-11.47-2.57-25.73-3.98-40.31-3.98c-16.1,0-30.41,1.37-41.5,3.95l32.85-59.16l0.25-0.44l-0.45-0.24
		c-1.79-0.96-3.34-2.25-4.62-3.83l-0.46-0.58l-0.36,0.65l-37.12,66.85l-0.29,0.52l0.56,0.2c1.82,0.64,3.49,2.9,4.96,4.2l0.25,0.22
		l0.3-0.14l0.12-0.02c11.85-3.28,27.58-5.02,45.52-5.02c16.14,0,31.8,1.77,44.12,4.99l0.25,0.48l0.48-0.39l0.1-0.08
		c1.5-1.32,3.17-3.59,5-4.23l0.56-0.19L200.7,152.35z"/>
</g>
</svg>
